<svg width="508" height="786" viewBox="0 0 508 786" fill="none" xmlns="http://www.w3.org/2000/svg">
<path d="M507.878 200.321C506.496 156.456 491.46 116.032 466.841 83.1543C454.899 67.2047 440.719 53.0371 424.773 41.1055C390.206 15.2858 347.298 0 300.824 0H112.811C77.7369 0 46.3869 16.002 25.685 41.1055C9.63406 60.5664 0 85.5301 0 112.713V200.321V413.553V586.238H0.139907C1.62611 629.894 16.6454 670.108 41.159 702.846C53.101 718.795 67.2811 732.963 83.2271 744.895C117.794 770.714 160.702 786 207.176 786H395.189C430.263 786 461.613 769.998 482.315 744.895C498.366 725.434 508 700.47 508 673.288V586.238V372.447V200.321H507.878ZM41.1415 455.182V413.553V200.321V107.769C41.1415 70.9606 71.0228 41.1055 107.863 41.1055H300.824C390.276 41.1055 463.204 111.804 466.701 200.321C466.789 202.54 466.841 204.759 466.841 206.995C466.841 212.83 466.544 218.594 465.949 224.272C457.697 303.932 393.038 366.84 312.556 372.447H193.73C191.947 372.57 190.163 372.692 188.397 372.867C149.162 376.378 113.091 390.825 83.2096 413.134C83.0173 413.273 82.8425 413.413 82.6501 413.553C66.9314 425.38 52.9436 439.407 41.159 455.165C41.159 455.165 41.1589 455.182 41.1415 455.182ZM466.859 586.238V678.231C466.859 715.039 436.977 744.895 400.137 744.895H207.176C115.486 744.895 41.159 670.615 41.159 579.005C41.159 491.326 109.244 419.545 195.461 413.553H314.27C316.071 413.431 317.872 413.308 319.672 413.134C358.873 409.605 394.926 395.175 424.79 372.867C424.983 372.727 425.158 372.587 425.35 372.447C440.684 360.918 454.357 347.291 465.949 332.006C466.247 331.621 466.544 331.22 466.841 330.835C466.841 330.835 466.841 330.818 466.859 330.818V372.447V586.238V586.238Z" fill="#181818"/>
</svg>
